<?xml version="1.0" encoding="utf-8"?>
<!-- Generator: Adobe Illustrator 25.3.0, SVG Export Plug-In . SVG Version: 6.00 Build 0)  -->
<svg version="1.1" id="Capa_1" xmlns="http://www.w3.org/2000/svg" xmlns:xlink="http://www.w3.org/1999/xlink" x="0px" y="0px"
	 viewBox="0 0 362 362" style="enable-background:new 0 0 362 362;" xml:space="preserve">
<style type="text/css">
	.st0{fill:#364A9D;}
</style>
<g>
	<path class="st0" d="M193.6,3.7c-2.4-4.9-10.4-4.9-12.9,0C160,41.6,141,80.2,130,121.8c-1.2,6.1,5.5,12.2,11,8.6
		c12.2-8.6,22.6-19,31.8-31.2c-2.4,85.7-14.1,174.4,6.1,258.9c1.2,6.1,11.6,4.9,11-1.2c-11-87.5-2.4-174.4-1.2-261.9
		c10.4,9.2,20.8,18.4,30.6,27.5c4.3,4.3,13.5,1.8,12.9-5.5C227.3,76.5,213.8,38.6,193.6,3.7z M186.9,76.5
		c-3.7-5.5-14.1-4.3-14.1,4.3c0,0.6,0,1.2,0,1.2c-7.3,7.3-14.1,14.7-22,22c9.8-28.2,22-54.5,36.1-80.8
		c12.2,23.9,21.4,48.3,26.3,74.7c-6.7-6.1-14.1-12.2-20.8-19C191.2,76.5,188.7,75.9,186.9,76.5z"/>
</g>
</svg>
